<svg width="16" height="16" viewBox="0 0 16 16" fill="none" xmlns="http://www.w3.org/2000/svg">
<rect width="16" height="16" fill="#6699CC"/>
<path fill-rule="evenodd" clip-rule="evenodd" d="M4.42061 7.71334C4.15388 7.78482 3.87971 7.62652 3.80824 7.35979L3.51704 6.27301C3.48272 6.14492 3.50068 6.00845 3.56699 5.8936C3.63329 5.77876 3.7425 5.69496 3.87059 5.66064L11.8706 3.51705C12.0431 3.47081 12.2272 3.52015 12.3536 3.64646C12.4799 3.77277 12.5292 3.95687 12.483 4.12942L10.3394 12.1294C10.2679 12.3962 9.99373 12.5544 9.727 12.483L8.64022 12.1918C8.51213 12.1575 8.40292 12.0737 8.33662 11.9588C8.27031 11.844 8.25235 11.7075 8.28667 11.5794L9.70174 6.29827L4.42061 7.71334Z" fill="white"/>
</svg>
